# xmcd
#
# Track frame offsets:
#	183
#	11620
#	26738
#	37365
#	50420
#	61745
#	72515
#	83585
#	97545
#	112638
#	123435
#	136118
#	148443
#	159260
#
# Disc length: 2254 seconds
#
# Revision: 1
# Processed by: cddbd v1.5.2PL0 Copyright (c) Steve Scherf et al.
# Submitted via: audiograbber 1.83.01
#
DISCID=b208cc0e
DTITLE=Jimmy Preston - Jimmy Preston
DYEAR=1990
DGENRE=Rock and Roll
TTITLE0=Swingin' In The Groove
TTITLE1=They Call Me The Champ
TTITLE2=I'm Lonesome
TTITLE3=Hang Out Tonight
TTITLE4=Potato Salad
TTITLE5=Oh Mr Possum
TTITLE6=Hey Everybody
TTITLE7=Hey Everybody [#]
TTITLE8=Early Morning Blues
TTITLE9=Hay Ride
TTITLE10=Estellina Bim Bam
TTITLE11=Credit Blues
TTITLE12=Swinging In
TTITLE13=Going Away
EXTD=Collectables Records COL-CD-5306
EXTT0=
EXTT1=
EXTT2=
EXTT3=
EXTT4=
EXTT5=
EXTT6=
EXTT7=
EXTT8=
EXTT9=
EXTT10=
EXTT11=
EXTT12=
EXTT13=
PLAYORDER=
